<svg width="18" height="19" viewBox="0 0 18 19" fill="none" xmlns="http://www.w3.org/2000/svg">
<path fill-rule="evenodd" clip-rule="evenodd" d="M13.0813 7.75444C13.0813 4.85249 10.7288 2.5 7.82683 2.5C4.92488 2.5 2.57239 4.85249 2.57239 7.75444C2.57239 10.6564 4.92488 13.0089 7.82683 13.0089C10.7288 13.0089 13.0813 10.6564 13.0813 7.75444ZM7.82683 0.5C11.8333 0.5 15.0813 3.74792 15.0813 7.75444C15.0813 9.61007 14.3845 11.303 13.2384 12.5858L17.707 17.0544C18.0976 17.445 18.0976 18.0781 17.707 18.4687C17.3165 18.8592 16.6833 18.8592 16.2928 18.4687L11.7084 13.8842C10.586 14.5964 9.25455 15.0089 7.82683 15.0089C3.82031 15.0089 0.572388 11.761 0.572388 7.75444C0.572388 3.74792 3.82031 0.5 7.82683 0.5Z" fill="#475661"/>
</svg>
