<svg width="26" height="20" viewBox="0 0 26 20" fill="none" xmlns="http://www.w3.org/2000/svg">
<path fill-rule="evenodd" clip-rule="evenodd" d="M12.6628 0C17.5342 0 21.9536 1.93516 25.1943 5.07868L23.7799 6.49308C20.9013 3.7114 16.9819 2 12.6628 2C8.27754 2 4.30437 3.76416 1.41423 6.62148L0 5.20724C3.25208 1.988 7.72526 0 12.6628 0ZM12.6628 5C16.1535 5 19.3229 6.37582 21.6582 8.61478L20.2436 10.0294C18.2705 8.15216 15.6012 7 12.6628 7C9.65825 7 6.93509 8.20456 4.94985 10.1571L3.5356 8.74284C5.8828 6.42839 9.10597 5 12.6628 5ZM12.6628 10C14.7728 10 16.692 10.8169 18.1214 12.1516L16.7061 13.5669C15.6395 12.5936 14.2205 12 12.6628 12C11.039 12 9.56583 12.645 8.48561 13.6929L7.07127 12.2785C8.51353 10.8688 10.4867 10 12.6628 10ZM12.5 15C11.1193 15 10 16.1193 10 17.5C10 18.8807 11.1193 20 12.5 20C13.8807 20 15 18.8807 15 17.5C15 16.1193 13.8807 15 12.5 15Z" fill="#2D3942"/>
</svg>
